<svg viewBox="0 0 50 62" xmlns="http://www.w3.org/2000/svg" fill="none" stroke="currentColor">
  <!-- ARCH… blason glyph (from arch-citizen top-left)  aura of the person -->
  <path
    d="M 25 2 L 45 10 L 45 40 Q 45 52 25 60 Q 5 52 5 40 L 5 10 Z"
    fill="rgba(250, 248, 245, 0.9)"
    stroke="#B8860B"
    stroke-width="0.5"
    opacity="0.85"
  />
  <!-- Central column -->
  <line x1="25" y1="15" x2="25" y2="45" stroke="#B8860B" stroke-width="1.2" opacity="0.6" />
  <!-- Chapiteau (top horizontal) -->
  <path d="M 22 15 L 28 15 M 21 17 L 29 17" stroke="#B8860B" stroke-width="0.6" opacity="0.5" />
  <!-- Base (bottom horizontal) -->
  <path d="M 22 45 L 28 45 M 21 47 L 29 47" stroke="#B8860B" stroke-width="0.6" opacity="0.5" />
  <!-- Lions stylisťs  left -->
  <path d="M 12 28 Q 10 26 12 24 L 14 26 Z" fill="#B8860B" opacity="0.35" />
  <!-- Lions stylisťs  right -->
  <path d="M 38 28 Q 40 26 38 24 L 36 26 Z" fill="#B8860B" opacity="0.35" />
  <!-- Eyes (two dots near top of shield) -->
  <circle cx="14" cy="12" r="1.2" fill="#2B2B2B" opacity="0.8" />
  <circle cx="36" cy="12" r="1.2" fill="#2B2B2B" opacity="0.8" />
  <!-- Central circle -->
  <circle cx="25" cy="31" r="6" fill="none" stroke="#B8860B" stroke-width="0.8" />
</svg>
